<svg width="19" height="19" viewBox="0 0 19 19" fill="none" xmlns="http://www.w3.org/2000/svg">
<path d="M7.92905 14.7097C8.28951 14.6335 10.4859 14.6335 10.8464 14.7097C11.1545 14.7809 11.4878 14.9472 11.4878 15.3103C11.4699 15.656 11.2671 15.9624 10.9869 16.157C10.6235 16.4403 10.1971 16.6196 9.75141 16.6843C9.50489 16.7162 9.26268 16.717 9.02476 16.6843C8.57831 16.6196 8.15192 16.4403 7.78931 16.1563C7.5084 15.9624 7.3056 15.656 7.28768 15.3103C7.28768 14.9472 7.62091 14.7809 7.92905 14.7097ZM9.43029 2.28766C10.9302 2.28766 12.4623 2.99934 13.3724 4.18015C13.9629 4.94049 14.2338 5.7001 14.2338 6.88092V7.1881C14.2338 8.09368 14.4731 8.62744 14.9998 9.24254C15.399 9.69569 15.5265 10.2774 15.5265 10.9085C15.5265 11.5388 15.3194 12.1372 14.9045 12.623C14.3613 13.2055 13.5953 13.5773 12.8134 13.6419C11.6805 13.7385 10.5468 13.8198 9.39804 13.8198C8.24859 13.8198 7.11562 13.7712 5.98265 13.6419C5.20011 13.5773 4.43404 13.2055 3.89157 12.623C3.47664 12.1372 3.26883 11.5388 3.26883 10.9085C3.26883 10.2774 3.3971 9.69569 3.79554 9.24254C4.33873 8.62744 4.56232 8.09368 4.56232 7.1881V6.88092C4.56232 5.66815 4.86473 4.87513 5.48747 4.09882C6.41334 2.96666 7.89745 2.28766 9.3658 2.28766H9.43029Z" fill="#787878"/>
</svg>
