<svg width="19" height="19" viewBox="0 0 19 19" fill="none" xmlns="http://www.w3.org/2000/svg">
<path opacity="0.16" d="M15.0417 8.70842C15.0417 10.3881 14.3744 11.999 13.1867 13.1868C11.999 14.3745 10.3881 15.0418 8.70837 15.0418C7.02867 15.0418 5.41776 14.3745 4.23003 13.1868C3.0423 11.999 2.37504 10.3881 2.37504 8.70842C2.37504 7.02872 3.0423 5.41781 4.23003 4.23008C5.41776 3.04235 7.02867 2.37509 8.70837 2.37509C10.3881 2.37509 11.999 3.04235 13.1867 4.23008C14.3744 5.41781 15.0417 7.02872 15.0417 8.70842Z" fill="#BEDE61"/>
<path d="M16.625 16.625L13.1868 13.1868M13.1868 13.1868C13.7749 12.5987 14.2414 11.9005 14.5597 11.1321C14.878 10.3637 15.0418 9.5401 15.0418 8.70837C15.0418 7.87665 14.878 7.05307 14.5597 6.28465C14.2414 5.51624 13.7749 4.81804 13.1868 4.22992C12.5987 3.6418 11.9005 3.17527 11.1321 2.85699C10.3636 2.5387 9.54006 2.37488 8.70833 2.37488C7.87661 2.37488 7.05302 2.5387 6.28461 2.85699C5.51619 3.17527 4.81799 3.6418 4.22987 4.22992C3.04211 5.41768 2.37484 7.02863 2.37484 8.70837C2.37484 10.3881 3.04211 11.9991 4.22987 13.1868C5.41764 14.3746 7.02858 15.0419 8.70833 15.0419C10.3881 15.0419 11.999 14.3746 13.1868 13.1868Z" stroke="#BEDE61" stroke-width="2" stroke-linecap="round" stroke-linejoin="round"/>
</svg>
